<svg xmlns="http://www.w3.org/2000/svg" xmlns:xlink="http://www.w3.org/1999/xlink" width="805" zoomAndPan="magnify" viewBox="0 0 603.75 187.499995" height="250" preserveAspectRatio="xMidYMid meet" version="1.0"><defs><filter x="0%" y="0%" width="100%" height="100%" id="9c07b6417e"><feColorMatrix values="0 0 0 0 1 0 0 0 0 1 0 0 0 0 1 0 0 0 1 0" color-interpolation-filters="sRGB"/></filter><g/><clipPath id="1027d9e437"><path d="M 59.574219 42 L 178.503906 42 L 178.503906 152 L 59.574219 152 Z M 59.574219 42 " clip-rule="nonzero"/></clipPath><clipPath id="636734865c"><path d="M 92.515625 151.792969 L 64.878906 151.792969 C 62.085938 151.792969 59.851562 149.28125 59.851562 146.488281 L 59.851562 127.503906 C 59.851562 124.433594 62.085938 122.199219 64.878906 122.199219 L 119.320312 122.199219 C 119.320312 105.726562 131.324219 92.605469 146.121094 92.605469 L 173.199219 92.605469 C 175.992188 92.605469 178.226562 95.117188 178.226562 97.910156 L 178.226562 116.894531 C 178.226562 119.964844 175.992188 122.199219 173.199219 122.199219 L 119.039062 122.199219 C 119.039062 138.671875 107.035156 151.792969 92.238281 151.792969 Z M 151.144531 42.351562 L 173.199219 42.351562 C 175.992188 42.351562 178.226562 44.863281 178.226562 47.65625 L 178.226562 66.640625 C 178.226562 69.710938 175.992188 71.945312 173.199219 71.945312 L 119.039062 71.945312 C 119.039062 88.417969 107.035156 101.539062 92.238281 101.539062 L 64.597656 101.539062 C 61.804688 101.539062 59.574219 99.027344 59.574219 96.234375 L 59.574219 77.25 C 59.574219 74.179688 61.804688 71.945312 64.597656 71.945312 L 119.039062 71.945312 C 119.039062 55.472656 131.042969 42.351562 145.839844 42.351562 Z M 151.144531 122.199219 L 173.199219 122.199219 M 151.144531 71.945312 L 173.199219 71.945312 " clip-rule="evenodd"/></clipPath><linearGradient x1="3.351863" gradientTransform="matrix(27.918504, 0, 0, 27.918504, 59.572801, 42.351737)" y1="4.249069" x2="1.58259" gradientUnits="userSpaceOnUse" y2="-0.579848" id="b717d06898"><stop stop-opacity="1" stop-color="rgb(0%, 28.199768%, 100%)" offset="0"/><stop stop-opacity="1" stop-color="rgb(0%, 28.199768%, 100%)" offset="0.0625"/><stop stop-opacity="1" stop-color="rgb(0%, 28.199768%, 100%)" offset="0.09375"/><stop stop-opacity="1" stop-color="rgb(0.123596%, 28.318787%, 100%)" offset="0.101562"/><stop stop-opacity="1" stop-color="rgb(0.465393%, 28.651428%, 100%)" offset="0.105469"/><stop stop-opacity="1" stop-color="rgb(0.683594%, 28.863525%, 100%)" offset="0.109375"/><stop stop-opacity="1" stop-color="rgb(0.901794%, 29.075623%, 100%)" offset="0.113281"/><stop stop-opacity="1" stop-color="rgb(1.119995%, 29.28772%, 100%)" offset="0.117187"/><stop stop-opacity="1" stop-color="rgb(1.338196%, 29.499817%, 100%)" offset="0.121094"/><stop stop-opacity="1" stop-color="rgb(1.556396%, 29.711914%, 100%)" offset="0.125"/><stop stop-opacity="1" stop-color="rgb(1.774597%, 29.924011%, 100%)" offset="0.128906"/><stop stop-opacity="1" stop-color="rgb(1.992798%, 30.136108%, 100%)" offset="0.132812"/><stop stop-opacity="1" stop-color="rgb(2.210999%, 30.34668%, 100%)" offset="0.136719"/><stop stop-opacity="1" stop-color="rgb(2.429199%, 30.558777%, 100%)" offset="0.140625"/><stop stop-opacity="1" stop-color="rgb(2.6474%, 30.770874%, 100%)" offset="0.144531"/><stop stop-opacity="1" stop-color="rgb(2.865601%, 30.982971%, 100%)" offset="0.148437"/><stop stop-opacity="1" stop-color="rgb(3.083801%, 31.195068%, 100%)" offset="0.152344"/><stop stop-opacity="1" stop-color="rgb(3.302002%, 31.407166%, 100%)" offset="0.15625"/><stop stop-opacity="1" stop-color="rgb(3.520203%, 31.619263%, 100%)" offset="0.160156"/><stop stop-opacity="1" stop-color="rgb(3.738403%, 31.83136%, 100%)" offset="0.164062"/><stop stop-opacity="1" stop-color="rgb(3.956604%, 32.043457%, 100%)" offset="0.167969"/><stop stop-opacity="1" stop-color="rgb(4.174805%, 32.255554%, 100%)" offset="0.171875"/><stop stop-opacity="1" stop-color="rgb(4.393005%, 32.467651%, 100%)" offset="0.175781"/><stop stop-opacity="1" stop-color="rgb(4.611206%, 32.679749%, 100%)" offset="0.179687"/><stop stop-opacity="1" stop-color="rgb(4.829407%, 32.891846%, 100%)" offset="0.183594"/><stop stop-opacity="1" stop-color="rgb(5.047607%, 33.103943%, 100%)" offset="0.1875"/><stop stop-opacity="1" stop-color="rgb(5.265808%, 33.31604%, 100%)" offset="0.191406"/><stop stop-opacity="1" stop-color="rgb(5.484009%, 33.528137%, 100%)" offset="0.195312"/><stop stop-opacity="1" stop-color="rgb(5.702209%, 33.740234%, 100%)" offset="0.199219"/><stop stop-opacity="1" stop-color="rgb(5.92041%, 33.952332%, 100%)" offset="0.203125"/><stop stop-opacity="1" stop-color="rgb(6.138611%, 34.164429%, 100%)" offset="0.207031"/><stop stop-opacity="1" stop-color="rgb(6.356812%, 34.376526%, 100%)" offset="0.210937"/><stop stop-opacity="1" stop-color="rgb(6.575012%, 34.587097%, 100%)" offset="0.214844"/><stop stop-opacity="1" stop-color="rgb(6.793213%, 34.799194%, 100%)" offset="0.21875"/><stop stop-opacity="1" stop-color="rgb(7.011414%, 35.011292%, 100%)" offset="0.222656"/><stop stop-opacity="1" stop-color="rgb(7.23114%, 35.223389%, 100%)" offset="0.226563"/><stop stop-opacity="1" stop-color="rgb(7.449341%, 35.435486%, 100%)" offset="0.230469"/><stop stop-opacity="1" stop-color="rgb(7.667542%, 35.647583%, 100%)" offset="0.234375"/><stop stop-opacity="1" stop-color="rgb(7.885742%, 35.85968%, 100%)" offset="0.238281"/><stop stop-opacity="1" stop-color="rgb(8.103943%, 36.071777%, 100%)" offset="0.242188"/><stop stop-opacity="1" stop-color="rgb(8.322144%, 36.283875%, 100%)" offset="0.246094"/><stop stop-opacity="1" stop-color="rgb(8.540344%, 36.495972%, 100%)" offset="0.25"/><stop stop-opacity="1" stop-color="rgb(8.758545%, 36.708069%, 100%)" offset="0.253906"/><stop stop-opacity="1" stop-color="rgb(8.976746%, 36.920166%, 100%)" offset="0.257812"/><stop stop-opacity="1" stop-color="rgb(9.194946%, 37.132263%, 100%)" offset="0.261719"/><stop stop-opacity="1" stop-color="rgb(9.413147%, 37.34436%, 100%)" offset="0.265625"/><stop stop-opacity="1" stop-color="rgb(9.631348%, 37.556458%, 100%)" offset="0.269531"/><stop stop-opacity="1" stop-color="rgb(9.849548%, 37.768555%, 100%)" offset="0.273438"/><stop stop-opacity="1" stop-color="rgb(10.067749%, 37.980652%, 100%)" offset="0.277344"/><stop stop-opacity="1" stop-color="rgb(10.28595%, 38.192749%, 100%)" offset="0.28125"/><stop stop-opacity="1" stop-color="rgb(10.50415%, 38.40332%, 100%)" offset="0.285156"/><stop stop-opacity="1" stop-color="rgb(10.722351%, 38.615417%, 100%)" offset="0.289062"/><stop stop-opacity="1" stop-color="rgb(10.940552%, 38.827515%, 100%)" offset="0.292969"/><stop stop-opacity="1" stop-color="rgb(11.158752%, 39.039612%, 100%)" offset="0.296875"/><stop stop-opacity="1" stop-color="rgb(11.376953%, 39.251709%, 100%)" offset="0.300781"/><stop stop-opacity="1" stop-color="rgb(11.595154%, 39.463806%, 100%)" offset="0.304687"/><stop stop-opacity="1" stop-color="rgb(11.813354%, 39.675903%, 100%)" offset="0.308594"/><stop stop-opacity="1" stop-color="rgb(12.031555%, 39.888%, 100%)" offset="0.3125"/><stop stop-opacity="1" stop-color="rgb(12.249756%, 40.100098%, 100%)" offset="0.316406"/><stop stop-opacity="1" stop-color="rgb(12.467957%, 40.312195%, 100%)" offset="0.320312"/><stop stop-opacity="1" stop-color="rgb(12.686157%, 40.524292%, 100%)" offset="0.324219"/><stop stop-opacity="1" stop-color="rgb(12.904358%, 40.736389%, 100%)" offset="0.328125"/><stop stop-opacity="1" stop-color="rgb(13.122559%, 40.948486%, 100%)" offset="0.332031"/><stop stop-opacity="1" stop-color="rgb(13.340759%, 41.160583%, 100%)" offset="0.335937"/><stop stop-opacity="1" stop-color="rgb(13.55896%, 41.372681%, 100%)" offset="0.339844"/><stop stop-opacity="1" stop-color="rgb(13.777161%, 41.584778%, 100%)" offset="0.34375"/><stop stop-opacity="1" stop-color="rgb(13.995361%, 41.796875%, 100%)" offset="0.347656"/><stop stop-opacity="1" stop-color="rgb(14.215088%, 42.008972%, 100%)" offset="0.351562"/><stop stop-opacity="1" stop-color="rgb(14.433289%, 42.219543%, 100%)" offset="0.355469"/><stop stop-opacity="1" stop-color="rgb(14.651489%, 42.431641%, 100%)" offset="0.359375"/><stop stop-opacity="1" stop-color="rgb(14.86969%, 42.643738%, 100%)" offset="0.363281"/><stop stop-opacity="1" stop-color="rgb(15.087891%, 42.855835%, 100%)" offset="0.367187"/><stop stop-opacity="1" stop-color="rgb(15.306091%, 43.067932%, 100%)" offset="0.371094"/><stop stop-opacity="1" stop-color="rgb(15.524292%, 43.280029%, 100%)" offset="0.375"/><stop stop-opacity="1" stop-color="rgb(15.742493%, 43.492126%, 100%)" offset="0.378906"/><stop stop-opacity="1" stop-color="rgb(15.960693%, 43.704224%, 100%)" offset="0.382812"/><stop stop-opacity="1" stop-color="rgb(16.178894%, 43.916321%, 100%)" offset="0.386719"/><stop stop-opacity="1" stop-color="rgb(16.397095%, 44.128418%, 100%)" offset="0.390625"/><stop stop-opacity="1" stop-color="rgb(16.615295%, 44.340515%, 100%)" offset="0.394531"/><stop stop-opacity="1" stop-color="rgb(16.833496%, 44.552612%, 100%)" offset="0.398437"/><stop stop-opacity="1" stop-color="rgb(17.051697%, 44.764709%, 100%)" offset="0.402344"/><stop stop-opacity="1" stop-color="rgb(17.269897%, 44.976807%, 100%)" offset="0.40625"/><stop stop-opacity="1" stop-color="rgb(17.488098%, 45.188904%, 100%)" offset="0.410156"/><stop stop-opacity="1" stop-color="rgb(17.706299%, 45.401001%, 100%)" offset="0.414062"/><stop stop-opacity="1" stop-color="rgb(17.9245%, 45.613098%, 100%)" offset="0.417969"/><stop stop-opacity="1" stop-color="rgb(18.1427%, 45.825195%, 100%)" offset="0.421875"/><stop stop-opacity="1" stop-color="rgb(18.360901%, 46.035767%, 100%)" offset="0.425781"/><stop stop-opacity="1" stop-color="rgb(18.579102%, 46.247864%, 100%)" offset="0.429687"/><stop stop-opacity="1" stop-color="rgb(18.797302%, 46.459961%, 100%)" offset="0.433594"/><stop stop-opacity="1" stop-color="rgb(19.015503%, 46.672058%, 100%)" offset="0.4375"/><stop stop-opacity="1" stop-color="rgb(19.233704%, 46.884155%, 100%)" offset="0.441406"/><stop stop-opacity="1" stop-color="rgb(19.451904%, 47.096252%, 100%)" offset="0.445312"/><stop stop-opacity="1" stop-color="rgb(19.670105%, 47.30835%, 100%)" offset="0.449219"/><stop stop-opacity="1" stop-color="rgb(19.888306%, 47.520447%, 100%)" offset="0.453125"/><stop stop-opacity="1" stop-color="rgb(20.106506%, 47.732544%, 100%)" offset="0.457031"/><stop stop-opacity="1" stop-color="rgb(20.324707%, 47.944641%, 100%)" offset="0.460937"/><stop stop-opacity="1" stop-color="rgb(20.542908%, 48.156738%, 100%)" offset="0.464844"/><stop stop-opacity="1" stop-color="rgb(20.762634%, 48.368835%, 100%)" offset="0.46875"/><stop stop-opacity="1" stop-color="rgb(20.980835%, 48.580933%, 100%)" offset="0.472656"/><stop stop-opacity="1" stop-color="rgb(21.199036%, 48.79303%, 100%)" offset="0.476562"/><stop stop-opacity="1" stop-color="rgb(21.417236%, 49.005127%, 100%)" offset="0.480469"/><stop stop-opacity="1" stop-color="rgb(21.635437%, 49.217224%, 100%)" offset="0.484375"/><stop stop-opacity="1" stop-color="rgb(21.853638%, 49.429321%, 100%)" offset="0.488281"/><stop stop-opacity="1" stop-color="rgb(22.071838%, 49.641418%, 100%)" offset="0.492187"/><stop stop-opacity="1" stop-color="rgb(22.290039%, 49.85199%, 100%)" offset="0.496094"/><stop stop-opacity="1" stop-color="rgb(22.50824%, 50.064087%, 100%)" offset="0.5"/><stop stop-opacity="1" stop-color="rgb(22.72644%, 50.276184%, 100%)" offset="0.503906"/><stop stop-opacity="1" stop-color="rgb(22.944641%, 50.488281%, 100%)" offset="0.507812"/><stop stop-opacity="1" stop-color="rgb(23.162842%, 50.700378%, 100%)" offset="0.511719"/><stop stop-opacity="1" stop-color="rgb(23.381042%, 50.912476%, 100%)" offset="0.515625"/><stop stop-opacity="1" stop-color="rgb(23.599243%, 51.124573%, 100%)" offset="0.519531"/><stop stop-opacity="1" stop-color="rgb(23.817444%, 51.33667%, 100%)" offset="0.523437"/><stop stop-opacity="1" stop-color="rgb(24.035645%, 51.548767%, 100%)" offset="0.527344"/><stop stop-opacity="1" stop-color="rgb(24.253845%, 51.760864%, 100%)" offset="0.53125"/><stop stop-opacity="1" stop-color="rgb(24.472046%, 51.972961%, 100%)" offset="0.535156"/><stop stop-opacity="1" stop-color="rgb(24.690247%, 52.185059%, 100%)" offset="0.539062"/><stop stop-opacity="1" stop-color="rgb(24.908447%, 52.397156%, 100%)" offset="0.542969"/><stop stop-opacity="1" stop-color="rgb(25.126648%, 52.609253%, 100%)" offset="0.546875"/><stop stop-opacity="1" stop-color="rgb(25.344849%, 52.82135%, 100%)" offset="0.550781"/><stop stop-opacity="1" stop-color="rgb(25.563049%, 53.033447%, 100%)" offset="0.554687"/><stop stop-opacity="1" stop-color="rgb(25.78125%, 53.245544%, 100%)" offset="0.558594"/><stop stop-opacity="1" stop-color="rgb(25.999451%, 53.457642%, 100%)" offset="0.5625"/><stop stop-opacity="1" stop-color="rgb(26.217651%, 53.668213%, 100%)" offset="0.566406"/><stop stop-opacity="1" stop-color="rgb(26.435852%, 53.88031%, 100%)" offset="0.570312"/><stop stop-opacity="1" stop-color="rgb(26.654053%, 54.092407%, 100%)" offset="0.574219"/><stop stop-opacity="1" stop-color="rgb(26.872253%, 54.304504%, 100%)" offset="0.578125"/><stop stop-opacity="1" stop-color="rgb(27.090454%, 54.516602%, 100%)" offset="0.582031"/><stop stop-opacity="1" stop-color="rgb(27.308655%, 54.728699%, 100%)" offset="0.585937"/><stop stop-opacity="1" stop-color="rgb(27.526855%, 54.940796%, 100%)" offset="0.589844"/><stop stop-opacity="1" stop-color="rgb(27.746582%, 55.152893%, 100%)" offset="0.59375"/><stop stop-opacity="1" stop-color="rgb(27.964783%, 55.36499%, 100%)" offset="0.597656"/><stop stop-opacity="1" stop-color="rgb(28.182983%, 55.577087%, 100%)" offset="0.601562"/><stop stop-opacity="1" stop-color="rgb(28.401184%, 55.789185%, 100%)" offset="0.605469"/><stop stop-opacity="1" stop-color="rgb(28.619385%, 56.001282%, 100%)" offset="0.609375"/><stop stop-opacity="1" stop-color="rgb(28.837585%, 56.213379%, 100%)" offset="0.613281"/><stop stop-opacity="1" stop-color="rgb(29.055786%, 56.425476%, 100%)" offset="0.617187"/><stop stop-opacity="1" stop-color="rgb(29.273987%, 56.637573%, 100%)" offset="0.621094"/><stop stop-opacity="1" stop-color="rgb(29.492188%, 56.84967%, 100%)" offset="0.625"/><stop stop-opacity="1" stop-color="rgb(29.710388%, 57.061768%, 100%)" offset="0.628906"/><stop stop-opacity="1" stop-color="rgb(29.928589%, 57.273865%, 100%)" offset="0.632812"/><stop stop-opacity="1" stop-color="rgb(30.14679%, 57.484436%, 100%)" offset="0.636719"/><stop stop-opacity="1" stop-color="rgb(30.36499%, 57.696533%, 100%)" offset="0.640625"/><stop stop-opacity="1" stop-color="rgb(30.583191%, 57.90863%, 100%)" offset="0.644531"/><stop stop-opacity="1" stop-color="rgb(30.801392%, 58.120728%, 100%)" offset="0.648438"/><stop stop-opacity="1" stop-color="rgb(31.019592%, 58.332825%, 100%)" offset="0.652344"/><stop stop-opacity="1" stop-color="rgb(31.237793%, 58.544922%, 100%)" offset="0.65625"/><stop stop-opacity="1" stop-color="rgb(31.455994%, 58.757019%, 100%)" offset="0.660156"/><stop stop-opacity="1" stop-color="rgb(31.674194%, 58.969116%, 100%)" offset="0.664062"/><stop stop-opacity="1" stop-color="rgb(31.892395%, 59.181213%, 100%)" offset="0.667969"/><stop stop-opacity="1" stop-color="rgb(32.110596%, 59.393311%, 100%)" offset="0.671875"/><stop stop-opacity="1" stop-color="rgb(32.328796%, 59.605408%, 100%)" offset="0.675781"/><stop stop-opacity="1" stop-color="rgb(32.546997%, 59.817505%, 100%)" offset="0.679688"/><stop stop-opacity="1" stop-color="rgb(32.765198%, 60.029602%, 100%)" offset="0.683594"/><stop stop-opacity="1" stop-color="rgb(32.983398%, 60.241699%, 100%)" offset="0.6875"/><stop stop-opacity="1" stop-color="rgb(33.201599%, 60.453796%, 100%)" offset="0.691406"/><stop stop-opacity="1" stop-color="rgb(33.4198%, 60.665894%, 100%)" offset="0.695312"/><stop stop-opacity="1" stop-color="rgb(33.638%, 60.877991%, 100%)" offset="0.699219"/><stop stop-opacity="1" stop-color="rgb(33.856201%, 61.090088%, 100%)" offset="0.703125"/><stop stop-opacity="1" stop-color="rgb(34.074402%, 61.300659%, 100%)" offset="0.707031"/><stop stop-opacity="1" stop-color="rgb(34.292603%, 61.512756%, 100%)" offset="0.710937"/><stop stop-opacity="1" stop-color="rgb(34.510803%, 61.724854%, 100%)" offset="0.714844"/><stop stop-opacity="1" stop-color="rgb(34.73053%, 61.936951%, 100%)" offset="0.71875"/><stop stop-opacity="1" stop-color="rgb(34.94873%, 62.149048%, 100%)" offset="0.722656"/><stop stop-opacity="1" stop-color="rgb(35.166931%, 62.361145%, 100%)" offset="0.726562"/><stop stop-opacity="1" stop-color="rgb(35.385132%, 62.573242%, 100%)" offset="0.730469"/><stop stop-opacity="1" stop-color="rgb(35.603333%, 62.785339%, 100%)" offset="0.734375"/><stop stop-opacity="1" stop-color="rgb(35.821533%, 62.997437%, 100%)" offset="0.738281"/><stop stop-opacity="1" stop-color="rgb(36.039734%, 63.209534%, 100%)" offset="0.742187"/><stop stop-opacity="1" stop-color="rgb(36.257935%, 63.421631%, 100%)" offset="0.746094"/><stop stop-opacity="1" stop-color="rgb(36.476135%, 63.633728%, 100%)" offset="0.75"/><stop stop-opacity="1" stop-color="rgb(36.694336%, 63.845825%, 100%)" offset="0.753906"/><stop stop-opacity="1" stop-color="rgb(36.912537%, 64.057922%, 100%)" offset="0.757812"/><stop stop-opacity="1" stop-color="rgb(37.130737%, 64.27002%, 100%)" offset="0.761719"/><stop stop-opacity="1" stop-color="rgb(37.348938%, 64.482117%, 100%)" offset="0.765625"/><stop stop-opacity="1" stop-color="rgb(37.567139%, 64.694214%, 100%)" offset="0.769531"/><stop stop-opacity="1" stop-color="rgb(37.785339%, 64.906311%, 100%)" offset="0.773437"/><stop stop-opacity="1" stop-color="rgb(38.00354%, 65.116882%, 100%)" offset="0.777344"/><stop stop-opacity="1" stop-color="rgb(38.221741%, 65.328979%, 100%)" offset="0.78125"/><stop stop-opacity="1" stop-color="rgb(38.439941%, 65.541077%, 100%)" offset="0.785156"/><stop stop-opacity="1" stop-color="rgb(38.658142%, 65.753174%, 100%)" offset="0.789062"/><stop stop-opacity="1" stop-color="rgb(38.876343%, 65.965271%, 100%)" offset="0.792969"/><stop stop-opacity="1" stop-color="rgb(39.094543%, 66.177368%, 100%)" offset="0.796875"/><stop stop-opacity="1" stop-color="rgb(39.312744%, 66.389465%, 100%)" offset="0.800781"/><stop stop-opacity="1" stop-color="rgb(39.530945%, 66.601562%, 100%)" offset="0.804688"/><stop stop-opacity="1" stop-color="rgb(39.749146%, 66.81366%, 100%)" offset="0.808594"/><stop stop-opacity="1" stop-color="rgb(39.967346%, 67.025757%, 100%)" offset="0.8125"/><stop stop-opacity="1" stop-color="rgb(40.185547%, 67.237854%, 100%)" offset="0.816406"/><stop stop-opacity="1" stop-color="rgb(40.403748%, 67.449951%, 100%)" offset="0.820312"/><stop stop-opacity="1" stop-color="rgb(40.621948%, 67.662048%, 100%)" offset="0.824219"/><stop stop-opacity="1" stop-color="rgb(40.840149%, 67.874146%, 100%)" offset="0.828125"/><stop stop-opacity="1" stop-color="rgb(41.05835%, 68.086243%, 100%)" offset="0.832031"/><stop stop-opacity="1" stop-color="rgb(41.27655%, 68.29834%, 100%)" offset="0.835938"/><stop stop-opacity="1" stop-color="rgb(41.494751%, 68.510437%, 100%)" offset="0.839844"/><stop stop-opacity="1" stop-color="rgb(41.714478%, 68.722534%, 100%)" offset="0.84375"/><stop stop-opacity="1" stop-color="rgb(41.856384%, 68.859863%, 100%)" offset="0.875"/><stop stop-opacity="1" stop-color="rgb(41.999817%, 68.998718%, 100%)" offset="1"/></linearGradient><mask id="930d6a3bd2"><g filter="url(#9c07b6417e)"><rect x="-60.375" width="724.5" fill="#000000" y="-18.749999" height="224.999994" fill-opacity="0.6"/></g></mask><clipPath id="3b384a392a"><rect x="0" width="156" y="0" height="52"/></clipPath><mask id="f6cba3727e"><g filter="url(#9c07b6417e)"><rect x="-60.375" width="724.5" fill="#000000" y="-18.749999" height="224.999994" fill-opacity="0.6"/></g></mask><clipPath id="358fde34aa"><rect x="0" width="50" y="0" height="54"/></clipPath></defs><g fill="#ffffff" fill-opacity="1"><g transform="translate(189.016064, 105.208409)"><g><path d="M 35.75 -13.859375 C 35.75 -9.347656 34.125 -5.796875 30.875 -3.203125 C 27.632812 -0.609375 23.125 0.6875 17.34375 0.6875 C 12.019531 0.6875 7.304688 -0.316406 3.203125 -2.328125 L 3.203125 -12.15625 C 6.578125 -10.65625 9.429688 -9.597656 11.765625 -8.984375 C 14.097656 -8.367188 16.226562 -8.0625 18.15625 -8.0625 C 20.476562 -8.0625 22.257812 -8.503906 23.5 -9.390625 C 24.738281 -10.273438 25.359375 -11.59375 25.359375 -13.34375 C 25.359375 -14.320312 25.085938 -15.191406 24.546875 -15.953125 C 24.003906 -16.722656 23.203125 -17.457031 22.140625 -18.15625 C 21.078125 -18.863281 18.921875 -19.992188 15.671875 -21.546875 C 12.617188 -22.972656 10.328125 -24.347656 8.796875 -25.671875 C 7.273438 -26.992188 6.0625 -28.53125 5.15625 -30.28125 C 4.25 -32.03125 3.796875 -34.078125 3.796875 -36.421875 C 3.796875 -40.835938 5.289062 -44.304688 8.28125 -46.828125 C 11.269531 -49.359375 15.40625 -50.625 20.6875 -50.625 C 23.28125 -50.625 25.753906 -50.316406 28.109375 -49.703125 C 30.472656 -49.085938 32.9375 -48.222656 35.5 -47.109375 L 32.09375 -38.890625 C 29.425781 -39.984375 27.222656 -40.742188 25.484375 -41.171875 C 23.742188 -41.609375 22.03125 -41.828125 20.34375 -41.828125 C 18.34375 -41.828125 16.804688 -41.359375 15.734375 -40.421875 C 14.671875 -39.492188 14.140625 -38.273438 14.140625 -36.765625 C 14.140625 -35.835938 14.351562 -35.023438 14.78125 -34.328125 C 15.21875 -33.628906 15.90625 -32.957031 16.84375 -32.3125 C 17.789062 -31.664062 20.03125 -30.5 23.5625 -28.8125 C 28.226562 -26.582031 31.425781 -24.347656 33.15625 -22.109375 C 34.882812 -19.867188 35.75 -17.117188 35.75 -13.859375 Z M 35.75 -13.859375 "/></g></g></g><g fill="#ffffff" fill-opacity="1"><g transform="translate(227.524, 105.208409)"><g><path d="M 21.546875 -7.609375 C 23.367188 -7.609375 25.550781 -8.007812 28.09375 -8.8125 L 28.09375 -1.0625 C 25.5 0.101562 22.3125 0.6875 18.53125 0.6875 C 14.375 0.6875 11.34375 -0.363281 9.4375 -2.46875 C 7.539062 -4.582031 6.59375 -7.742188 6.59375 -11.953125 L 6.59375 -30.359375 L 1.609375 -30.359375 L 1.609375 -34.75 L 7.34375 -38.234375 L 10.34375 -46.296875 L 17 -46.296875 L 17 -38.171875 L 27.6875 -38.171875 L 27.6875 -30.359375 L 17 -30.359375 L 17 -11.953125 C 17 -10.472656 17.414062 -9.378906 18.25 -8.671875 C 19.082031 -7.960938 20.179688 -7.609375 21.546875 -7.609375 Z M 21.546875 -7.609375 "/></g></g></g><g fill="#ffffff" fill-opacity="1"><g transform="translate(257.872896, 105.208409)"><g><path d="M 26.765625 -38.890625 C 28.179688 -38.890625 29.351562 -38.785156 30.28125 -38.578125 L 29.5 -28.8125 C 28.65625 -29.039062 27.628906 -29.15625 26.421875 -29.15625 C 23.097656 -29.15625 20.507812 -28.300781 18.65625 -26.59375 C 16.800781 -24.882812 15.875 -22.492188 15.875 -19.421875 L 15.875 0 L 5.46875 0 L 5.46875 -38.171875 L 13.34375 -38.171875 L 14.890625 -31.75 L 15.390625 -31.75 C 16.578125 -33.894531 18.175781 -35.617188 20.1875 -36.921875 C 22.207031 -38.234375 24.398438 -38.890625 26.765625 -38.890625 Z M 26.765625 -38.890625 "/></g></g></g><g fill="#ffffff" fill-opacity="1"><g transform="translate(289.62146, 105.208409)"><g><path d="M 21.265625 -31.484375 C 19.054688 -31.484375 17.328125 -30.78125 16.078125 -29.375 C 14.828125 -27.976562 14.113281 -25.992188 13.9375 -23.421875 L 28.546875 -23.421875 C 28.492188 -25.992188 27.816406 -27.976562 26.515625 -29.375 C 25.222656 -30.78125 23.472656 -31.484375 21.265625 -31.484375 Z M 22.734375 0.6875 C 16.585938 0.6875 11.785156 -1.003906 8.328125 -4.390625 C 4.867188 -7.785156 3.140625 -12.59375 3.140625 -18.8125 C 3.140625 -25.207031 4.738281 -30.148438 7.9375 -33.640625 C 11.132812 -37.140625 15.554688 -38.890625 21.203125 -38.890625 C 26.597656 -38.890625 30.796875 -37.351562 33.796875 -34.28125 C 36.804688 -31.207031 38.3125 -26.960938 38.3125 -21.546875 L 38.3125 -16.484375 L 13.6875 -16.484375 C 13.800781 -13.523438 14.675781 -11.210938 16.3125 -9.546875 C 17.957031 -7.890625 20.257812 -7.0625 23.21875 -7.0625 C 25.519531 -7.0625 27.691406 -7.300781 29.734375 -7.78125 C 31.785156 -8.257812 33.925781 -9.023438 36.15625 -10.078125 L 36.15625 -2.015625 C 34.332031 -1.109375 32.382812 -0.429688 30.3125 0.015625 C 28.238281 0.460938 25.710938 0.6875 22.734375 0.6875 Z M 22.734375 0.6875 "/></g></g></g><g fill="#ffffff" fill-opacity="1"><g transform="translate(330.928731, 105.208409)"><g><path d="M 29.703125 0 L 27.6875 -5.1875 L 27.421875 -5.1875 C 25.660156 -2.976562 23.851562 -1.445312 22 -0.59375 C 20.144531 0.257812 17.726562 0.6875 14.75 0.6875 C 11.082031 0.6875 8.195312 -0.359375 6.09375 -2.453125 C 3.988281 -4.546875 2.9375 -7.53125 2.9375 -11.40625 C 2.9375 -15.457031 4.351562 -18.441406 7.1875 -20.359375 C 10.019531 -22.285156 14.289062 -23.351562 20 -23.5625 L 26.625 -23.765625 L 26.625 -25.4375 C 26.625 -29.300781 24.644531 -31.234375 20.6875 -31.234375 C 17.632812 -31.234375 14.050781 -30.3125 9.9375 -28.46875 L 6.484375 -35.5 C 10.878906 -37.800781 15.75 -38.953125 21.09375 -38.953125 C 26.21875 -38.953125 30.144531 -37.835938 32.875 -35.609375 C 35.601562 -33.378906 36.96875 -29.988281 36.96875 -25.4375 L 36.96875 0 Z M 26.625 -17.6875 L 22.609375 -17.546875 C 19.578125 -17.453125 17.320312 -16.90625 15.84375 -15.90625 C 14.363281 -14.90625 13.625 -13.378906 13.625 -11.328125 C 13.625 -8.398438 15.304688 -6.9375 18.671875 -6.9375 C 21.085938 -6.9375 23.015625 -7.628906 24.453125 -9.015625 C 25.898438 -10.398438 26.625 -12.242188 26.625 -14.546875 Z M 26.625 -17.6875 "/></g></g></g><g fill="#ffffff" fill-opacity="1"><g transform="translate(373.157735, 105.208409)"><g><path d="M 39.640625 0 L 29.21875 0 L 29.21875 -22.296875 C 29.21875 -25.046875 28.753906 -27.109375 27.828125 -28.484375 C 26.910156 -29.867188 25.460938 -30.5625 23.484375 -30.5625 C 20.828125 -30.5625 18.894531 -29.582031 17.6875 -27.625 C 16.476562 -25.664062 15.875 -22.441406 15.875 -17.953125 L 15.875 0 L 5.46875 0 L 5.46875 -38.171875 L 13.421875 -38.171875 L 14.8125 -33.28125 L 15.390625 -33.28125 C 16.421875 -35.039062 17.898438 -36.414062 19.828125 -37.40625 C 21.765625 -38.394531 23.988281 -38.890625 26.5 -38.890625 C 32.207031 -38.890625 36.078125 -37.019531 38.109375 -33.28125 L 39.03125 -33.28125 C 40.050781 -35.0625 41.554688 -36.441406 43.546875 -37.421875 C 45.535156 -38.398438 47.785156 -38.890625 50.296875 -38.890625 C 54.617188 -38.890625 57.890625 -37.78125 60.109375 -35.5625 C 62.328125 -33.34375 63.4375 -29.785156 63.4375 -24.890625 L 63.4375 0 L 52.984375 0 L 52.984375 -22.296875 C 52.984375 -25.046875 52.519531 -27.109375 51.59375 -28.484375 C 50.675781 -29.867188 49.226562 -30.5625 47.25 -30.5625 C 44.695312 -30.5625 42.789062 -29.648438 41.53125 -27.828125 C 40.269531 -26.003906 39.640625 -23.113281 39.640625 -19.15625 Z M 39.640625 0 "/></g></g></g><g clip-path="url(#1027d9e437)"><g clip-path="url(#636734865c)"><path fill="url(#b717d06898)" d="M 59.574219 42.351562 L 59.574219 151.792969 L 178.226562 151.792969 L 178.226562 42.351562 Z M 59.574219 42.351562 " fill-rule="nonzero"/></g></g><g fill="#ffffff" fill-opacity="1"><g transform="translate(439.090281, 105.219412)"><g><path d="M 12.640625 0 L 6.859375 0 L 6.859375 -49.84375 L 34.640625 -49.84375 L 34.640625 -44.6875 L 12.640625 -44.6875 L 12.640625 -26.453125 L 33.296875 -26.453125 L 33.296875 -21.3125 L 12.640625 -21.3125 Z M 12.640625 0 "/></g></g></g><g fill="#ffffff" fill-opacity="1"><g transform="translate(475.120117, 105.219412)"><g><path d="M 11.65625 0 L 6 0 L 6 -53.046875 L 11.65625 -53.046875 Z M 11.65625 0 "/></g></g></g><g fill="#ffffff" fill-opacity="1"><g transform="translate(492.777121, 105.219412)"><g><path d="M 11.65625 0 L 6 0 L 6 -37.359375 L 11.65625 -37.359375 Z M 5.515625 -47.484375 C 5.515625 -48.773438 5.832031 -49.722656 6.46875 -50.328125 C 7.113281 -50.929688 7.910156 -51.234375 8.859375 -51.234375 C 9.765625 -51.234375 10.546875 -50.925781 11.203125 -50.3125 C 11.867188 -49.695312 12.203125 -48.753906 12.203125 -47.484375 C 12.203125 -46.210938 11.867188 -45.265625 11.203125 -44.640625 C 10.546875 -44.015625 9.765625 -43.703125 8.859375 -43.703125 C 7.910156 -43.703125 7.113281 -44.015625 6.46875 -44.640625 C 5.832031 -45.265625 5.515625 -46.210938 5.515625 -47.484375 Z M 5.515625 -47.484375 "/></g></g></g><g fill="#ffffff" fill-opacity="1"><g transform="translate(510.434124, 105.219412)"><g><path d="M 23.390625 0.6875 C 20.953125 0.6875 18.726562 0.238281 16.71875 -0.65625 C 14.707031 -1.5625 13.019531 -2.945312 11.65625 -4.8125 L 11.25 -4.8125 C 11.519531 -2.625 11.65625 -0.554688 11.65625 1.390625 L 11.65625 16.765625 L 6 16.765625 L 6 -37.359375 L 10.59375 -37.359375 L 11.390625 -32.25 L 11.65625 -32.25 C 13.113281 -34.289062 14.804688 -35.765625 16.734375 -36.671875 C 18.671875 -37.585938 20.890625 -38.046875 23.390625 -38.046875 C 28.335938 -38.046875 32.15625 -36.351562 34.84375 -32.96875 C 37.539062 -29.582031 38.890625 -24.832031 38.890625 -18.71875 C 38.890625 -12.582031 37.519531 -7.8125 34.78125 -4.40625 C 32.039062 -1.007812 28.242188 0.6875 23.390625 0.6875 Z M 22.5625 -33.234375 C 18.75 -33.234375 15.988281 -32.175781 14.28125 -30.0625 C 12.570312 -27.945312 11.695312 -24.582031 11.65625 -19.96875 L 11.65625 -18.71875 C 11.65625 -13.46875 12.53125 -9.710938 14.28125 -7.453125 C 16.03125 -5.191406 18.835938 -4.0625 22.703125 -4.0625 C 25.929688 -4.0625 28.457031 -5.363281 30.28125 -7.96875 C 32.113281 -10.582031 33.03125 -14.1875 33.03125 -18.78125 C 33.03125 -23.4375 32.113281 -27.007812 30.28125 -29.5 C 28.457031 -31.988281 25.882812 -33.234375 22.5625 -33.234375 Z M 22.5625 -33.234375 "/></g></g></g><g mask="url(#930d6a3bd2)"><g transform="matrix(1, 0, 0, 1, 389, 112)"><g clip-path="url(#3b384a392a)"><g fill="#ffffff" fill-opacity="1"><g transform="translate(0.172148, 40.282712)"><g><path d="M 25.1875 0 L 18.671875 0 L 11.578125 -11.40625 L 9.140625 -9.671875 L 9.140625 0 L 3.40625 0 L 3.40625 -27.078125 L 9.140625 -27.078125 L 9.140625 -14.6875 L 11.40625 -17.875 L 18.734375 -27.078125 L 25.109375 -27.078125 L 15.671875 -15.09375 Z M 25.1875 0 "/></g></g></g><g fill="#ffffff" fill-opacity="1"><g transform="translate(25.350456, 40.282712)"><g><path d="M 16.109375 0 L 15.015625 -2.8125 L 14.875 -2.8125 C 13.914062 -1.613281 12.929688 -0.78125 11.921875 -0.3125 C 10.921875 0.144531 9.613281 0.375 8 0.375 C 6.007812 0.375 4.441406 -0.191406 3.296875 -1.328125 C 2.160156 -2.460938 1.59375 -4.082031 1.59375 -6.1875 C 1.59375 -8.382812 2.359375 -10.003906 3.890625 -11.046875 C 5.429688 -12.085938 7.75 -12.664062 10.84375 -12.78125 L 14.4375 -12.890625 L 14.4375 -13.796875 C 14.4375 -15.890625 13.363281 -16.9375 11.21875 -16.9375 C 9.5625 -16.9375 7.617188 -16.4375 5.390625 -15.4375 L 3.515625 -19.25 C 5.898438 -20.5 8.539062 -21.125 11.4375 -21.125 C 14.21875 -21.125 16.347656 -20.519531 17.828125 -19.3125 C 19.304688 -18.101562 20.046875 -16.265625 20.046875 -13.796875 L 20.046875 0 Z M 14.4375 -9.59375 L 12.265625 -9.515625 C 10.617188 -9.460938 9.394531 -9.164062 8.59375 -8.625 C 7.789062 -8.082031 7.390625 -7.253906 7.390625 -6.140625 C 7.390625 -4.554688 8.300781 -3.765625 10.125 -3.765625 C 11.4375 -3.765625 12.484375 -4.140625 13.265625 -4.890625 C 14.046875 -5.640625 14.4375 -6.640625 14.4375 -7.890625 Z M 14.4375 -9.59375 "/></g></g></g><g fill="#ffffff" fill-opacity="1"><g transform="translate(48.251608, 40.282712)"><g><path d="M 14.515625 -21.09375 C 15.285156 -21.09375 15.921875 -21.035156 16.421875 -20.921875 L 16 -15.625 C 15.539062 -15.75 14.984375 -15.8125 14.328125 -15.8125 C 12.523438 -15.8125 11.117188 -15.347656 10.109375 -14.421875 C 9.109375 -13.492188 8.609375 -12.195312 8.609375 -10.53125 L 8.609375 0 L 2.96875 0 L 2.96875 -20.703125 L 7.234375 -20.703125 L 8.078125 -17.21875 L 8.34375 -17.21875 C 8.988281 -18.382812 9.859375 -19.320312 10.953125 -20.03125 C 12.046875 -20.738281 13.234375 -21.09375 14.515625 -21.09375 Z M 14.515625 -21.09375 "/></g></g></g><g fill="#ffffff" fill-opacity="1"><g transform="translate(65.469128, 40.282712)"><g><path d="M 9.046875 0 L 3.40625 0 L 3.40625 -27.078125 L 18.921875 -27.078125 L 18.921875 -22.375 L 9.046875 -22.375 L 9.046875 -15.390625 L 18.234375 -15.390625 L 18.234375 -10.703125 L 9.046875 -10.703125 Z M 9.046875 0 "/></g></g></g><g fill="#ffffff" fill-opacity="1"><g transform="translate(86.278259, 40.282712)"><g><path d="M 11.53125 -17.078125 C 10.332031 -17.078125 9.394531 -16.695312 8.71875 -15.9375 C 8.039062 -15.175781 7.65625 -14.097656 7.5625 -12.703125 L 15.484375 -12.703125 C 15.453125 -14.097656 15.082031 -15.175781 14.375 -15.9375 C 13.675781 -16.695312 12.726562 -17.078125 11.53125 -17.078125 Z M 12.328125 0.375 C 8.992188 0.375 6.390625 -0.539062 4.515625 -2.375 C 2.640625 -4.21875 1.703125 -6.828125 1.703125 -10.203125 C 1.703125 -13.671875 2.566406 -16.351562 4.296875 -18.25 C 6.035156 -20.144531 8.4375 -21.09375 11.5 -21.09375 C 14.425781 -21.09375 16.703125 -20.257812 18.328125 -18.59375 C 19.960938 -16.925781 20.78125 -14.625 20.78125 -11.6875 L 20.78125 -8.9375 L 7.421875 -8.9375 C 7.484375 -7.332031 7.957031 -6.078125 8.84375 -5.171875 C 9.738281 -4.273438 10.988281 -3.828125 12.59375 -3.828125 C 13.84375 -3.828125 15.019531 -3.957031 16.125 -4.21875 C 17.238281 -4.476562 18.398438 -4.894531 19.609375 -5.46875 L 19.609375 -1.09375 C 18.617188 -0.601562 17.5625 -0.238281 16.4375 0 C 15.3125 0.25 13.941406 0.375 12.328125 0.375 Z M 12.328125 0.375 "/></g></g></g><g fill="#ffffff" fill-opacity="1"><g transform="translate(108.679554, 40.282712)"><g><path d="M 11.53125 -17.078125 C 10.332031 -17.078125 9.394531 -16.695312 8.71875 -15.9375 C 8.039062 -15.175781 7.65625 -14.097656 7.5625 -12.703125 L 15.484375 -12.703125 C 15.453125 -14.097656 15.082031 -15.175781 14.375 -15.9375 C 13.675781 -16.695312 12.726562 -17.078125 11.53125 -17.078125 Z M 12.328125 0.375 C 8.992188 0.375 6.390625 -0.539062 4.515625 -2.375 C 2.640625 -4.21875 1.703125 -6.828125 1.703125 -10.203125 C 1.703125 -13.671875 2.566406 -16.351562 4.296875 -18.25 C 6.035156 -20.144531 8.4375 -21.09375 11.5 -21.09375 C 14.425781 -21.09375 16.703125 -20.257812 18.328125 -18.59375 C 19.960938 -16.925781 20.78125 -14.625 20.78125 -11.6875 L 20.78125 -8.9375 L 7.421875 -8.9375 C 7.484375 -7.332031 7.957031 -6.078125 8.84375 -5.171875 C 9.738281 -4.273438 10.988281 -3.828125 12.59375 -3.828125 C 13.84375 -3.828125 15.019531 -3.957031 16.125 -4.21875 C 17.238281 -4.476562 18.398438 -4.894531 19.609375 -5.46875 L 19.609375 -1.09375 C 18.617188 -0.601562 17.5625 -0.238281 16.4375 0 C 15.3125 0.25 13.941406 0.375 12.328125 0.375 Z M 12.328125 0.375 "/></g></g></g><g fill="#ffffff" fill-opacity="1"><g transform="translate(131.080843, 40.282712)"><g><path d="M 9.515625 0.375 C 7.085938 0.375 5.175781 -0.566406 3.78125 -2.453125 C 2.394531 -4.347656 1.703125 -6.96875 1.703125 -10.3125 C 1.703125 -13.707031 2.40625 -16.351562 3.8125 -18.25 C 5.226562 -20.144531 7.179688 -21.09375 9.671875 -21.09375 C 12.273438 -21.09375 14.257812 -20.078125 15.625 -18.046875 L 15.8125 -18.046875 C 15.53125 -19.597656 15.390625 -20.976562 15.390625 -22.1875 L 15.390625 -28.8125 L 21.046875 -28.8125 L 21.046875 0 L 16.71875 0 L 15.625 -2.6875 L 15.390625 -2.6875 C 14.109375 -0.644531 12.148438 0.375 9.515625 0.375 Z M 11.5 -4.125 C 12.945312 -4.125 14.003906 -4.539062 14.671875 -5.375 C 15.347656 -6.21875 15.71875 -7.648438 15.78125 -9.671875 L 15.78125 -10.28125 C 15.78125 -12.5 15.4375 -14.085938 14.75 -15.046875 C 14.0625 -16.015625 12.945312 -16.5 11.40625 -16.5 C 10.144531 -16.5 9.164062 -15.960938 8.46875 -14.890625 C 7.769531 -13.828125 7.421875 -12.273438 7.421875 -10.234375 C 7.421875 -8.203125 7.769531 -6.675781 8.46875 -5.65625 C 9.175781 -4.632812 10.1875 -4.125 11.5 -4.125 Z M 11.5 -4.125 "/></g></g></g></g></g></g><g mask="url(#f6cba3727e)"><g transform="matrix(1, 0, 0, 1, 336, 108)"><g clip-path="url(#358fde34aa)"><g fill="#ffffff" fill-opacity="1"><g transform="translate(1.547558, 40.105474)"><g><path d="M 6.359375 -16.90625 C 7.066406 -18.132812 8.101562 -19.140625 9.46875 -19.921875 C 10.832031 -20.710938 12.390625 -21.109375 14.140625 -21.109375 C 16.003906 -21.109375 17.679688 -20.664062 19.171875 -19.78125 C 20.660156 -18.894531 21.832031 -17.648438 22.6875 -16.046875 C 23.550781 -14.441406 23.984375 -12.578125 23.984375 -10.453125 C 23.984375 -8.359375 23.550781 -6.488281 22.6875 -4.84375 C 21.832031 -3.207031 20.65625 -1.929688 19.15625 -1.015625 C 17.65625 -0.109375 15.984375 0.34375 14.140625 0.34375 C 12.335938 0.34375 10.757812 -0.046875 9.40625 -0.828125 C 8.0625 -1.617188 7.046875 -2.617188 6.359375 -3.828125 L 6.359375 0 L 2.921875 0 L 2.921875 -28.046875 L 6.359375 -28.046875 Z M 20.46875 -10.453125 C 20.46875 -12.023438 20.148438 -13.390625 19.515625 -14.546875 C 18.878906 -15.710938 18.023438 -16.597656 16.953125 -17.203125 C 15.878906 -17.804688 14.695312 -18.109375 13.40625 -18.109375 C 12.144531 -18.109375 10.976562 -17.796875 9.90625 -17.171875 C 8.832031 -16.554688 7.972656 -15.660156 7.328125 -14.484375 C 6.679688 -13.316406 6.359375 -11.960938 6.359375 -10.421875 C 6.359375 -8.859375 6.679688 -7.488281 7.328125 -6.3125 C 7.972656 -5.132812 8.832031 -4.234375 9.90625 -3.609375 C 10.976562 -2.992188 12.144531 -2.6875 13.40625 -2.6875 C 14.695312 -2.6875 15.878906 -2.992188 16.953125 -3.609375 C 18.023438 -4.234375 18.878906 -5.132812 19.515625 -6.3125 C 20.148438 -7.488281 20.46875 -8.867188 20.46875 -10.453125 Z M 20.46875 -10.453125 "/></g></g></g><g fill="#ffffff" fill-opacity="1"><g transform="translate(27.162002, 40.105474)"><g><path d="M 20.796875 -20.765625 L 8.296875 9.78125 L 4.734375 9.78125 L 8.828125 -0.234375 L 0.453125 -20.765625 L 4.28125 -20.765625 L 10.796875 -3.9375 L 17.234375 -20.765625 Z M 20.796875 -20.765625 "/></g></g></g></g></g></g></svg>